<?xml version="1.0" encoding="UTF-8" standalone="no"?>
<svg width="534px" height="120px" viewBox="0 0 534 120" version="1.1" xmlns="http://www.w3.org/2000/svg" xmlns:xlink="http://www.w3.org/1999/xlink" xmlns:sketch="http://www.bohemiancoding.com/sketch/ns">
    <!-- Generator: Sketch 3.3.3 (12072) - http://www.bohemiancoding.com/sketch -->
    <title>appearin-logo-name</title>
    <desc>Created with Sketch.</desc>
    <defs></defs>
    <g id="Page-1" stroke="none" stroke-width="1" fill="none" fill-rule="evenodd" sketch:type="MSPage">
        <g id="iPad-Portrait" sketch:type="MSArtboardGroup" transform="translate(-117.000000, -464.000000)">
            <g id="appearin-logo-name" sketch:type="MSLayerGroup" transform="translate(78.000000, 425.000000)">
                <path d="M0.904,0.815 L611.097,0.815 L611.097,173.184 L0.904,173.184 L0.904,0.815 Z" id="boundary" opacity="0" fill="#FFFFFF" sketch:type="MSShapeGroup"></path>
                <path d="M277.751,106.358 L270.067,106.358 L270.067,100.347 L269.896,100.347 C266.82,104.711 262.04,107.676 256.317,107.676 C244.105,107.676 237.187,97.876 237.187,86.842 C237.187,76.302 244.447,66.667 256.061,66.667 C261.953,66.667 266.736,69.633 269.896,74.243 L270.067,74.243 L270.067,67.821 L277.751,67.821 L277.751,106.358 L277.751,106.358 Z M270.494,87.09 C270.494,79.596 265.795,73.255 257.513,73.255 C249.57,73.255 244.874,79.925 244.874,87.09 C244.874,94.335 249.399,101.088 257.513,101.088 C265.882,101.088 270.494,94.666 270.494,87.09 L270.494,87.09 Z" id="a" fill="#000000" sketch:type="MSShapeGroup"></path>
                <path d="M293.383,74.243 L293.552,74.243 C296.712,69.633 301.495,66.667 307.474,66.667 C319.003,66.667 326.26,76.302 326.26,86.842 C326.26,97.876 319.43,107.676 307.131,107.676 C301.495,107.676 296.627,104.711 293.552,100.347 L293.383,100.347 L293.383,128.427 L285.697,128.427 L285.697,67.821 L293.383,67.821 L293.383,74.243 L293.383,74.243 Z M318.574,87.09 C318.574,79.596 313.878,73.255 305.595,73.255 C297.652,73.255 292.957,79.925 292.957,87.09 C292.957,94.335 297.481,101.088 305.595,101.088 C313.965,101.088 318.574,94.666 318.574,87.09 L318.574,87.09 Z" id="p" fill="#000000" sketch:type="MSShapeGroup"></path>
                <path d="M339.415,74.243 L339.584,74.243 C342.744,69.633 347.527,66.667 353.506,66.667 C365.035,66.667 372.292,76.302 372.292,86.842 C372.292,97.876 365.462,107.676 353.163,107.676 C347.527,107.676 342.659,104.711 339.584,100.347 L339.415,100.347 L339.415,128.427 L331.728,128.427 L331.728,67.821 L339.415,67.821 L339.415,74.243 L339.415,74.243 Z M364.605,87.09 C364.605,79.596 359.909,73.255 351.627,73.255 C343.684,73.255 338.988,79.925 338.988,87.09 C338.988,94.335 343.513,101.088 351.627,101.088 C359.996,101.088 364.605,94.666 364.605,87.09 L364.605,87.09 Z" id="p" fill="#000000" sketch:type="MSShapeGroup"></path>
                <path d="M383.993,88.325 C384.08,94.912 388.691,101.088 396.036,101.088 C401.928,101.088 405.088,98.207 407.992,93.595 L414.48,97.136 C410.724,103.806 403.72,107.676 395.949,107.676 C383.737,107.676 376.308,98.782 376.308,87.419 C376.308,75.561 382.883,66.667 395.777,66.667 C408.503,66.667 414.48,75.726 414.48,87.172 L414.48,88.325 L383.993,88.325 L383.993,88.325 Z M406.795,82.725 C405.854,76.961 401.928,73.091 395.777,73.091 C389.801,73.091 385.36,77.208 384.42,82.725 L406.795,82.725 L406.795,82.725 Z" id="e" fill="#000000" sketch:type="MSShapeGroup"></path>
                <path d="M458.888,106.358 L451.204,106.358 L451.204,100.347 L451.033,100.347 C447.957,104.711 443.177,107.676 437.453,107.676 C425.242,107.676 418.324,97.876 418.324,86.842 C418.324,76.302 425.584,66.667 437.198,66.667 C443.09,66.667 447.873,69.633 451.033,74.243 L451.204,74.243 L451.204,67.821 L458.888,67.821 L458.888,106.358 L458.888,106.358 Z M451.631,87.09 C451.631,79.596 446.932,73.255 438.65,73.255 C430.707,73.255 426.011,79.925 426.011,87.09 C426.011,94.335 430.536,101.088 438.65,101.088 C447.019,101.088 451.631,94.666 451.631,87.09 L451.631,87.09 Z" id="a" fill="#000000" sketch:type="MSShapeGroup"></path>
                <path d="M476.91,74.08 L477.166,74.08 C479.045,69.55 482.974,66.667 488.097,66.667 C490.318,66.667 492.537,67.41 494.416,68.562 L490.917,75.315 C489.549,74.161 488.013,73.749 486.218,73.749 C477.935,73.749 476.91,81.16 476.91,87.419 L476.91,106.358 L469.224,106.358 L469.224,67.821 L476.91,67.821 L476.91,74.08" id="r" fill="#000000" sketch:type="MSShapeGroup"></path>
                <path d="M506.63,102.9 C506.63,105.535 504.409,107.676 501.676,107.676 C498.943,107.676 496.725,105.535 496.725,102.9 C496.725,100.347 498.943,98.124 501.676,98.124 C504.409,98.124 506.63,100.347 506.63,102.9" id="dot" fill="#000000" sketch:type="MSShapeGroup"></path>
                <path d="M530.029,50.199 C530.029,52.999 527.638,55.222 524.734,55.222 C521.83,55.222 519.44,52.999 519.44,50.199 C519.44,47.317 521.83,45.012 524.734,45.012 C527.638,45.012 530.029,47.317 530.029,50.199 L530.029,50.199 Z M520.892,67.821 L528.576,67.821 L528.576,106.358 L520.892,106.358 L520.892,67.821 Z" id="i" fill="#000000" sketch:type="MSShapeGroup"></path>
                <path d="M546.169,73.009 L546.341,73.009 C548.733,68.891 553.514,66.667 558.383,66.667 C569.654,66.667 572.558,73.997 572.558,83.384 L572.558,106.358 L564.871,106.358 L564.871,84.289 C564.871,77.702 563.933,73.255 556.078,73.255 C546.169,73.255 546.169,81.654 546.169,88.654 L546.169,106.358 L538.485,106.358 L538.485,67.821 L546.169,67.821 L546.169,73.009" id="n" fill="#000000" sketch:type="MSShapeGroup"></path>
                <path d="M168.659,110.223 C168.659,114.7 164.922,118.364 160.354,118.364 L64.369,118.364 C59.802,118.364 56.065,114.7 56.065,110.223 L56.065,47.495 C56.065,43.017 59.802,39.354 64.369,39.354 L160.354,39.354 C164.922,39.354 168.659,43.017 168.659,47.495 L168.659,110.223" id="camera-body" fill="#41CC8D" sketch:type="MSShapeGroup"></path>
                <path d="M192.943,116.75 L180.926,108.217 C178.432,106.446 176.963,103.665 176.963,100.711 L176.963,57.006 C176.963,54.052 178.432,51.271 180.926,49.5 L192.943,40.967 C194.46,39.89 196.624,40.916 196.624,42.712 L196.624,115.005 C196.624,116.801 194.46,117.827 192.943,116.75" id="camera-lens" fill="#41CC8D" sketch:type="MSShapeGroup"></path>
                <path d="M143.731,55.636 L47.746,55.636 C43.179,55.636 39.442,59.3 39.442,63.778 L39.442,126.505 C39.442,130.983 43.179,134.647 47.746,134.647 L75.763,134.647 L115.702,158.86 L115.702,134.647 L143.731,134.647 C148.298,134.647 152.035,130.983 152.035,126.505 L152.035,63.778 C152.035,59.3 148.298,55.636 143.731,55.636" id="chat-bubble" fill="#FF2E63" sketch:type="MSShapeGroup"></path>
                <path d="M115.709,114.349 L108.143,114.349 L108.143,108.331 L107.974,108.331 C104.946,112.7 100.239,115.667 94.603,115.667 C82.579,115.667 75.768,105.858 75.768,94.811 C75.768,84.26 82.917,74.616 94.352,74.616 C100.154,74.616 104.863,77.584 107.974,82.2 L108.143,82.2 L108.143,75.77 L115.709,75.77 L115.709,114.349 L115.709,114.349 Z M108.563,95.059 C108.563,87.558 103.937,81.21 95.781,81.21 C87.961,81.21 83.337,87.887 83.337,95.059 C83.337,102.313 87.792,109.073 95.781,109.073 C104.022,109.073 108.563,102.643 108.563,95.059 L108.563,95.059 Z" id="a" fill="#FFFFFF" sketch:type="MSShapeGroup"></path>
            </g>
        </g>
    </g>
</svg>
